<svg width="1258" height="477" viewBox="0 0 1258 477" fill="none" xmlns="http://www.w3.org/2000/svg">
<g clip-path="url(#clip0)">
<path d="M226 132.059V151.388L253.33 157H257.558L291 120.835V104H276.227H253.33L238.557 112.106L226 132.059Z" fill="white" stroke="black"/>
<path d="M236 189.135C236 189.135 253.945 218.16 262.517 266.596C271.089 315.032 281.793 386.592 281.793 386.592C281.793 386.592 280.294 367.93 282.11 390.532L289.052 477C289.052 477 295.685 399.229 289.052 327.264C282.419 255.299 262.519 182 262.519 182L236 189.135Z" fill="#171715" stroke="#707070"/>
<path d="M183 174.359L188.486 180.227L218.834 193H236.092C236.092 193 255.583 191.849 268.314 184.566C281.045 177.283 287.015 163.863 287.015 163.863L295 148L264.137 151.832L258.93 155.58L272.407 163.863L268.316 169.793H236.094L218.836 163.863L193.024 169.797L183 174.359Z" fill="#232421" stroke="#707070"/>
<path d="M66.726 71.0273C50.284 57.6831 59.2742 57.0584 66.726 55.5779C74.1777 54.0975 83.6271 60.4894 96.5331 65.1063C109.439 69.7233 130.332 83.5751 130.332 83.5751L162.699 109.539L170.849 121.277C169.318 121.292 167.805 121.633 166.404 122.281C165.003 122.929 163.742 123.87 162.699 125.045C159.521 128.942 158.136 136.869 158.136 136.869C146.361 131.219 135.081 124.495 124.427 116.775C105.803 103.453 98.063 95.0143 83.6413 83.5781C69.2197 72.1418 83.1651 84.3714 66.726 71.0273Z" fill="white" stroke="#707070"/>
<path d="M138.518 77.9675C139.125 76.5938 140.021 75.3823 141.139 74.424C142.256 73.4657 143.566 72.7855 144.97 72.4344C149.929 71.0511 149.199 67.7738 158.353 72.4344C167.507 77.0949 181.584 91.0667 181.584 91.0667L199.669 109.437C199.669 109.437 192.191 113.072 187.669 114.283C185.553 114.851 176.722 114.418 173.608 114.283C170.692 114.158 158.351 100.647 158.351 100.647C158.351 100.647 143.472 91.9661 138.518 86.2961C133.563 80.626 138.518 77.9675 138.518 77.9675Z" fill="white" stroke="#707070"/>
<path d="M208.932 106.911H219.594C222.158 103.557 224.024 99.6779 225.074 95.5221C226.443 89.2521 226.443 89.1093 225.074 81.8309C223.705 74.5524 223.632 71.2206 219.594 66.4093C215.555 61.598 214.392 58.9435 208.932 57.9895C203.472 57.0356 195.65 60.5806 191.222 62.4379C186.794 64.2952 186.659 71.6123 186.659 71.6123V81.8309C187.828 86.5153 189.354 91.0938 191.222 95.5221C193.996 101.792 194.581 104.064 197.755 106.911C198.603 107.704 199.699 108.142 200.835 108.142C201.971 108.142 203.067 107.704 203.915 106.911H208.932Z" fill="white" stroke="#707070"/>
<path d="M263.479 31.1853C257.039 31.1853 255.86 32.0608 249.48 36.4329C243.1 40.8049 242.375 41.0766 237.966 48.6713C233.557 56.2661 234.415 54.2749 231.841 66.8099C229.267 79.3449 227.67 98.8132 227.67 98.8132H249.486C249.486 98.8132 257.045 70.2478 263.485 54.6528C269.925 39.0577 275.249 42.2993 275.249 36.4319C275.249 30.5645 269.924 31.1853 263.479 31.1853Z" fill="white" stroke="#707070"/>
<path d="M157.258 136.866C156.617 140.507 156.617 144.24 157.258 147.881C157.258 147.881 156.65 150.735 161.668 151.687C166.685 152.639 169.499 151.687 177.329 151.687H192.987V156.488L227.544 147.881H236.515V129.541C236.515 129.541 240.9 116.406 245.501 110.627C250.102 104.848 254.918 106.424 254.918 106.424H275.059V98.6198H251.166C251.166 98.6198 235.055 96.6683 227.549 98.6198C220.043 100.571 221.142 106.424 221.142 106.424C221.142 106.424 209.873 104.257 201.819 106.424C193.766 108.59 196.132 112.925 188.925 115.092C181.718 117.26 172.994 115.092 172.994 115.092C172.994 115.092 175.829 116.809 172.994 119.506C170.159 122.203 161.668 125.882 161.668 125.882C159.673 129.286 158.186 132.991 157.258 136.866Z" fill="#181817" stroke="#707070"/>
<path d="M279.449 27.9477C287.428 16.2466 284.962 22.5225 290.447 20.7148C295.932 18.9071 296.674 18.9061 301.39 20.7148C306.106 22.5235 307.333 22.4373 309.314 27.9477C311.294 33.4581 309.314 42.7574 309.314 42.7574C309.314 42.7574 303.637 53.68 295.074 67.5348C286.511 81.3896 278.967 90.5144 275.061 98.1756C271.154 105.837 279.448 98.1756 279.448 98.1756L316.831 34.7947C316.831 34.7947 329.404 18.3846 339.012 11.3302C348.62 4.27591 348.103 5.36469 355.265 6.57644C362.427 7.78819 367.654 16.1762 367.654 16.1762C367.654 16.1762 361.315 21.9544 348.609 34.7947C335.903 47.6351 316.832 67.5358 316.832 67.5358L279.449 125.42C279.449 125.42 280.546 114.982 279.449 110.22C278.352 105.457 275.061 106.37 275.061 106.37V98.1746H250.596C252.117 87.6762 254.78 77.3955 258.534 67.5338C263.927 53.4858 270.952 40.1899 279.449 27.9477Z" fill="white" stroke="#707070"/>
<path d="M354.365 31.1664C354.365 31.1664 360.556 24.95 367.374 22.8775C374.191 20.8051 381.636 22.8775 381.636 22.8775C384.615 21.6367 387.933 21.6367 390.913 22.8775C396.016 24.95 402.044 31.1664 402.044 31.1664C402.044 31.1664 390.864 32.867 371.819 50.3918C352.775 67.9166 349.224 79.6503 325.868 101.261C311.181 114.71 295.283 126.628 278.397 136.845L266.336 141.539L278.397 124.593C278.397 124.593 299.193 93.1243 312.066 75.6987C324.939 58.2731 319.315 66.0246 329.89 54.8907C340.465 43.7569 354.365 31.1664 354.365 31.1664Z" fill="white" stroke="#707070"/>
<path d="M390.526 21.9563C390.526 21.9563 401.699 10.2057 408.087 6.28887C414.475 2.37201 414.081 4.24219 416.078 6.28887C418.076 8.33556 418.913 7.80703 416.078 14.4776C413.244 21.1482 404.725 32.9722 404.725 32.9722C404.725 32.9722 405.842 31.5938 399.363 41.7063C392.885 51.8187 392.728 58.6857 378.812 73.424C364.896 88.1623 343.697 100.66 343.697 100.66L282.907 134.268L324.806 104.391L350.365 73.425" fill="white"/>
<path d="M390.526 21.9563C390.526 21.9563 401.699 10.2057 408.087 6.28887C414.475 2.37201 414.081 4.24219 416.078 6.28887C418.076 8.33556 418.913 7.80703 416.078 14.4776C413.244 21.1482 404.725 32.9722 404.725 32.9722C404.725 32.9722 405.842 31.5938 399.363 41.7063C392.885 51.8187 392.728 58.6857 378.812 73.424C364.896 88.1623 343.697 100.66 343.697 100.66L282.907 134.268L324.806 104.391L350.365 73.425" stroke="#707070"/>
<path d="M372.065 49.0214C378.57 40.3205 384.511 31.1704 389.846 21.6331L349.403 74.9312C357.432 66.7664 365 58.115 372.065 49.0214V49.0214Z" stroke="#707070"/>
<path d="M266.335 141.543L347.505 99.8167C355.243 92.3828 364.003 86.213 373.491 81.5145C389.115 73.8167 397.54 72.1468 410.003 69.0202C422.465 65.8937 419.132 67.8472 423.34 69.0202C427.549 70.1933 426.837 73.7135 426.837 73.7135C426.837 73.7135 407.02 80.7232 389.58 89.149C372.139 97.5747 376.445 97.1622 357.074 107.417C337.702 117.673 334.773 121.637 312.095 130.168C297.241 135.553 281.912 139.364 266.335 141.543V141.543Z" fill="white" stroke="#707070"/>
<path d="M291.077 136.866C302.688 138.554 314.464 138.554 326.075 136.866C344.672 134.025 354.589 128.641 365.468 125.503L369.589 124.314C369.589 124.314 395.54 112.774 407.514 105.293C419.487 97.8127 416.43 99.3011 417.482 94.3906C418.533 89.4802 419.054 86.5975 411.718 85.6505C404.381 84.7035 388.142 90.6086 388.142 90.6086L352.802 110.053L326.073 124.315L291.077 136.866Z" fill="white" stroke="#707070"/>
<path d="M258.574 149.473C260.954 150.927 277.628 149.82 277.628 149.82L281.423 149.473C281.423 149.473 288.55 146.449 298.682 149.473C308.815 152.496 321.952 161.565 321.952 161.565C321.952 161.565 327.85 166.166 335.109 166.166C342.367 166.166 350.984 161.565 350.984 161.565L399.239 141.267C399.239 141.267 411.769 136.549 395.736 134.976C379.703 133.404 360.509 134.976 335.109 134.976C309.709 134.976 310.912 133.404 294.135 134.976C277.358 136.549 268 141.267 268 141.267C268 141.267 255.219 147.421 258.574 149.473Z" fill="white" stroke="#707070"/>
<path d="M190.072 156.488L178.04 173.532L194.456 168.636C194.456 168.636 206.585 166.882 218.122 163.851C225.729 161.792 233.233 159.335 240.605 156.488C240.605 156.488 242.717 158.216 246.963 156.488C251.208 154.761 257.589 149.578 257.589 149.578H214.094L190.072 156.488Z" fill="white" stroke="#707070"/>
<path d="M250.596 156.488L264.058 161.225C264.058 161.225 267.423 163.506 264.058 166.038C260.693 168.569 256.961 170.011 250.596 171.336C244.231 172.661 245.895 171.336 238.595 171.336C231.296 171.336 228.173 172.661 221.397 171.336C214.622 170.011 211.508 166.038 211.508 166.038L238.595 156.488H250.596Z" fill="white" stroke="#707070"/>
<path d="M191.248 171.924C191.3 171.469 167.8 202.774 167.8 202.774C167.8 202.774 156.056 220.337 152.141 231.305C148.226 242.274 148.226 241.758 152.141 246.646C154.036 249.012 161.401 250.578 161.401 250.578C161.401 250.578 174.585 255.75 180.792 250.855C186.998 245.96 191.311 251.038 200.585 231.304C209.859 211.571 210.79 194.84 213.175 178.299C215.559 161.758 209.724 167.339 209.228 166.353C208.731 165.367 191.192 172.379 191.248 171.924Z" fill="white" stroke="#707070"/>
<path d="M185.049 164.52C185.049 164.52 169.319 163.067 156.134 168.685C142.95 174.304 128.731 186.7 128.731 186.7C128.731 186.7 127.289 189.982 128.731 191.077C130.173 192.172 134.495 191.077 134.495 191.077L152.289 182.259L177.394 172.839L185.049 164.52Z" fill="white" stroke="#707070"/>
<path d="M156.57 149.578L130.556 153.998C130.556 153.998 127.258 155.419 126.158 157.698C125.058 159.977 124.656 160.986 126.158 163.112C127.659 165.238 130.562 166.323 136.56 167.394C142.557 168.465 142.767 168.464 150.147 167.394C157.527 166.324 159.361 164.183 166.081 163.112C169.701 162.434 173.407 162.434 177.027 163.112C177.027 163.112 178.379 165.393 182.096 163.112C185.812 160.832 190.774 153.998 190.774 153.998L156.57 149.578Z" fill="white" stroke="#707070"/>
<path d="M125.177 161.555C125.177 161.555 80.9681 165.501 56.2334 172.318C31.4986 179.136 26.2391 188.825 26.2391 188.825C26.2391 188.825 17.8821 196.46 19.2882 202.672C20.6942 208.883 20.697 210.93 31.8643 213.679C43.0316 216.427 43.9435 218.059 63.9592 213.679C83.9749 209.298 111.926 196.155 111.926 196.155L132.545 182.55L153.975 168.648L179.222 161.558L137.898 168.648L125.177 161.555Z" fill="white" stroke="black"/>
<path d="M67.3969 168.197C67.3969 168.197 52.9648 170.651 45.0963 168.197C37.2278 165.744 35.9096 162.774 35.9096 158.38C35.9096 153.986 32.283 152.567 45.0963 150.63C57.9097 148.692 87.165 150.63 87.165 150.63L128.891 158.38L67.3969 168.197Z" fill="white" stroke="#707070"/>
<path d="M125.177 156.488C114.096 158.954 98.8747 150.719 81.9111 149.211C54.4134 146.767 34.8815 152.024 25.4217 149.211C15.9619 146.398 26.6795 139.283 44.0711 137.958C61.4627 136.633 69.419 141.1 94.99 143.908C120.561 146.716 152.572 149.206 152.572 149.206C152.572 149.206 154.571 149.949 125.177 156.488Z" fill="white" stroke="#707070"/>
<path d="M35.4315 134.268C36.377 132.384 37.6974 130.735 39.3033 129.433C40.9092 128.131 42.763 127.207 44.7391 126.722C46.4712 126.252 49.3212 124.21 63.2496 126.722C81.7959 130.067 95.5892 135.448 118.925 140.1C142.262 144.752 156.593 145.341 156.593 145.341V149.765C156.593 149.765 117.343 147.753 95.901 145.341C74.4594 142.928 63.2486 140.1 63.2486 140.1L35.4315 134.268Z" fill="white" stroke="#707070"/>
<path d="M55.3942 125.494L39.4701 120.629L25.7818 117.044C25.7818 117.044 15 115.266 15 113C15 110.734 25.7818 107.981 25.7818 107.981C25.7818 107.981 48.8279 108.622 65.7413 113C82.6548 117.378 74.9072 119.087 93.4356 125.494C111.964 131.902 139.85 138.628 139.85 138.628L154.851 143.995L115.218 138.628C115.218 138.628 87.1376 132.982 72.1802 129.698C57.2227 126.414 55.3942 125.494 55.3942 125.494Z" fill="white" stroke="#707070"/>
<path d="M26.2996 104.44C19.0963 103.448 15.5178 104.44 15.5178 104.44C15.5178 104.44 11.738 97.7661 26.2996 97.7661C40.8611 97.7661 53.0584 100.08 73.7771 104.44C94.4958 108.799 88.5182 106.635 109.174 115.201C129.829 123.766 156.382 138.702 156.382 138.702V142.65L73.7761 115.201L44.329 108.409C44.329 108.409 33.5066 105.432 26.2996 104.44Z" fill="white" stroke="#707070"/>
</g>
<path d="M454.75 314.75C442.917 314.75 433.333 311.75 426 305.75C418.833 299.917 413.583 292.333 410.25 283C407.083 273.667 405.5 263.917 405.5 253.75C405.5 240.583 407.5 227.333 411.5 214C415.5 200.667 420.917 188 427.75 176C434.75 163.833 442.667 153.083 451.5 143.75C460.333 134.25 469.583 126.833 479.25 121.5C489.083 116 498.75 113.25 508.25 113.25C515.083 113.25 520.583 114.917 524.75 118.25C529.083 121.417 531.25 126.917 531.25 134.75C531.25 139.583 530.417 145.083 528.75 151.25C527.083 157.25 524.833 163.083 522 168.75C519.167 174.25 516 178.833 512.5 182.5C509.167 186.167 505.75 188 502.25 188C500.917 188 499.5 187.583 498 186.75C496.667 185.917 495.5 184.417 494.5 182.25C497 179.417 499.75 175.917 502.75 171.75C505.917 167.417 508.917 162.917 511.75 158.25C514.583 153.417 516.833 148.75 518.5 144.25C520.333 139.583 521.25 135.5 521.25 132C521.25 128.667 520.25 126 518.25 124C516.417 121.833 513.333 120.75 509 120.75C501.833 120.75 494.333 123.667 486.5 129.5C478.833 135.333 471.333 143.167 464 153C456.833 162.667 450.333 173.5 444.5 185.5C438.667 197.5 434 209.75 430.5 222.25C427.167 234.75 425.5 246.667 425.5 258C425.5 266.167 426.667 274 429 281.5C431.333 288.833 435.083 294.75 440.25 299.25C445.583 303.917 452.417 306.25 460.75 306.25C469.583 306.25 478.333 303.75 487 298.75C495.833 293.75 503.917 287.167 511.25 279C518.583 270.833 524.417 262 528.75 252.5L532.25 255C526.75 265.833 520.083 275.833 512.25 285C504.417 294 495.667 301.167 486 306.5C476.333 312 465.917 314.75 454.75 314.75ZM535.535 304.75C530.368 304.75 526.035 303 522.535 299.5C518.868 296.167 517.035 291 517.035 284C517.035 278 518.368 271.583 521.035 264.75C523.702 257.75 527.368 250.917 532.035 244.25C536.702 237.417 541.952 231.25 547.785 225.75C553.785 220.083 560.035 215.583 566.535 212.25C573.202 208.917 579.785 207.25 586.285 207.25C592.785 207.25 598.202 209 602.535 212.5C606.868 215.833 609.035 220.333 609.035 226C609.035 230.167 607.868 233 605.535 234.5C603.368 236 600.452 236.75 596.785 236.75C597.618 233.75 598.035 230.833 598.035 228C598.035 224.167 597.118 220.917 595.285 218.25C593.452 215.417 590.285 214 585.785 214C581.118 214 576.368 215.667 571.535 219C566.702 222.167 562.035 226.5 557.535 232C553.035 237.333 549.035 243.167 545.535 249.5C542.035 255.833 539.285 262.083 537.285 268.25C535.285 274.417 534.285 279.917 534.285 284.75C534.285 291.25 536.535 294.5 541.035 294.5C544.868 294.5 549.035 292.75 553.535 289.25C558.035 285.583 562.618 281 567.285 275.5C572.118 269.833 576.702 264 581.035 258C585.368 252 589.202 246.5 592.535 241.5C593.202 240.5 593.618 240 593.785 240C595.285 240.167 597.285 240.833 599.785 242C602.285 243 603.535 244.417 603.535 246.25C603.535 247.75 602.785 249.833 601.285 252.5C599.785 255 598.118 257.917 596.285 261.25C594.452 264.583 592.785 268 591.285 271.5C589.785 274.833 589.035 278 589.035 281C589.035 283.5 589.702 286 591.035 288.5C592.368 290.833 594.535 292 597.535 292C602.035 292 607.952 288.75 615.285 282.25C622.618 275.583 630.035 265.667 637.535 252.5L640.035 255C636.535 264 632.035 271.917 626.535 278.75C621.035 285.583 615.118 290.917 608.785 294.75C602.618 298.583 596.535 300.5 590.535 300.5C584.368 300.5 579.785 298.667 576.785 295C573.952 291.333 572.535 287.333 572.535 283C572.535 280.833 572.785 278.417 573.285 275.75C566.118 285.417 559.535 292.667 553.535 297.5C547.702 302.333 541.702 304.75 535.535 304.75ZM758.422 300.75C752.589 300.75 748.339 298.917 745.672 295.25C743.005 291.75 741.672 287.5 741.672 282.5C741.672 278.333 742.255 274.167 743.422 270C744.755 265.833 746.005 261.75 747.172 257.75C748.505 253.75 749.172 250.167 749.172 247C749.172 243.667 748.422 241.333 746.922 240C745.422 238.667 743.755 238 741.922 238C737.755 238 733.172 241.25 728.172 247.75C723.339 254.25 717.005 263.417 709.172 275.25C706.505 279.25 704.255 283.333 702.422 287.5C700.589 291.5 698.839 295.167 697.172 298.5C695.839 298.5 694.172 298.333 692.172 298C690.172 297.667 688.339 297.083 686.672 296.25C685.172 295.583 684.422 294.667 684.422 293.5C684.422 292.333 685.172 289.583 686.672 285.25C688.339 280.75 690.172 275.583 692.172 269.75C694.339 263.75 696.172 257.75 697.672 251.75C699.339 245.583 700.172 240.333 700.172 236C700.172 233.167 699.672 230.917 698.672 229.25C697.839 227.417 696.255 226.5 693.922 226.5C690.255 226.5 685.839 228.75 680.672 233.25C675.505 237.583 670.172 243.333 664.672 250.5C659.172 257.667 653.922 265.583 648.922 274.25C644.089 282.75 640.172 291.25 637.172 299.75C634.839 299.75 632.005 299.167 628.672 298C625.339 296.833 623.672 295.667 623.672 294.5C623.672 293.5 624.589 290.583 626.422 285.75C628.089 280.75 630.089 274.833 632.422 268C634.589 261 636.505 253.917 638.172 246.75C640.005 239.583 640.922 233.25 640.922 227.75C641.922 226.583 643.505 225.417 645.672 224.25C647.839 223.083 650.089 222.5 652.422 222.5C656.922 222.5 659.172 224.667 659.172 229C659.172 231.167 658.505 234.917 657.172 240.25C656.005 245.417 654.505 251.167 652.672 257.5C656.005 252.167 659.755 246.75 663.922 241.25C668.255 235.583 672.755 230.417 677.422 225.75C682.089 221.083 686.755 217.333 691.422 214.5C696.255 211.5 700.922 210 705.422 210C710.589 210 714.089 211.917 715.922 215.75C717.922 219.417 718.922 223.833 718.922 229C718.922 233.167 718.422 237.583 717.422 242.25C716.589 246.75 715.589 251 714.422 255C713.255 258.833 712.172 261.917 711.172 264.25C714.672 257.917 718.505 251.833 722.672 246C727.005 240 731.672 235.167 736.672 231.5C741.672 227.667 747.005 225.75 752.672 225.75C758.005 225.75 761.672 227.333 763.672 230.5C765.839 233.667 766.922 237.417 766.922 241.75C766.922 246.083 766.172 250.833 764.672 256C763.172 261.167 761.589 266.167 759.922 271C758.422 275.833 757.672 280 757.672 283.5C757.672 285.667 758.172 287.667 759.172 289.5C760.339 291.167 762.339 292 765.172 292C769.839 292 774.172 289.917 778.172 285.75C782.339 281.417 786.172 276.25 789.672 270.25C793.172 264.083 796.172 258.167 798.672 252.5L801.672 256C799.005 263 795.589 270 791.422 277C787.255 283.833 782.339 289.5 776.672 294C771.172 298.5 765.089 300.75 758.422 300.75ZM811.293 301C804.126 301 799.043 298.75 796.043 294.25C793.043 289.917 791.543 284.583 791.543 278.25C791.543 273.083 792.376 267.75 794.043 262.25C795.71 256.75 797.876 251.583 800.543 246.75C803.376 241.917 806.46 238 809.793 235C813.293 232 816.793 230.5 820.293 230.5C821.793 230.5 823.543 230.917 825.543 231.75C824.043 233.083 822.21 235.583 820.043 239.25C818.043 242.75 816.126 246.833 814.293 251.5C812.46 256 810.876 260.5 809.543 265C808.376 269.5 807.793 273.333 807.793 276.5C807.793 281.5 808.626 285.167 810.293 287.5C811.96 289.667 814.126 290.75 816.793 290.75C820.293 290.75 824.46 288.917 829.293 285.25C834.126 281.417 838.876 276.583 843.543 270.75C838.876 266.917 835.21 261.917 832.543 255.75C830.043 249.417 828.793 243 828.793 236.5C828.793 231 829.71 225.833 831.543 221C833.543 216.167 836.376 212.333 840.043 209.5C843.71 206.5 848.126 205 853.293 205C860.126 205 864.71 206.833 867.043 210.5C869.376 214.167 870.543 218.75 870.543 224.25C870.543 230.75 868.96 238 865.793 246C862.626 253.833 858.626 261.417 853.793 268.75C856.793 270.417 859.96 271.25 863.293 271.25C867.126 271.25 871.793 270 877.293 267.5C882.793 264.833 887.043 260.083 890.043 253.25L893.043 255.75C889.71 263.583 884.96 269.167 878.793 272.5C872.793 275.667 867.043 277.25 861.543 277.25C857.043 277.25 853.043 276.417 849.543 274.75C843.876 282.25 837.626 288.5 830.793 293.5C824.126 298.5 817.626 301 811.293 301ZM848.043 264.25C852.21 258.083 855.626 251.667 858.293 245C861.126 238.167 862.543 231.75 862.543 225.75C862.543 220.917 861.793 217.417 860.293 215.25C858.96 212.917 857.21 211.75 855.043 211.75C851.71 211.75 848.293 214.167 844.793 219C841.293 223.833 839.543 229.917 839.543 237.25C839.543 242.083 840.21 247 841.543 252C843.043 256.833 845.21 260.917 848.043 264.25ZM1011.35 300.75C1005.52 300.75 1001.27 298.917 998.602 295.25C995.935 291.75 994.602 287.5 994.602 282.5C994.602 278.333 995.185 274.167 996.352 270C997.685 265.833 998.935 261.75 1000.1 257.75C1001.43 253.75 1002.1 250.167 1002.1 247C1002.1 243.667 1001.35 241.333 999.852 240C998.352 238.667 996.685 238 994.852 238C990.685 238 986.102 241.25 981.102 247.75C976.268 254.25 969.935 263.417 962.102 275.25C959.435 279.25 957.185 283.333 955.352 287.5C953.518 291.5 951.768 295.167 950.102 298.5C948.768 298.5 947.102 298.333 945.102 298C943.102 297.667 941.268 297.083 939.602 296.25C938.102 295.583 937.352 294.667 937.352 293.5C937.352 292.333 938.102 289.583 939.602 285.25C941.268 280.75 943.102 275.583 945.102 269.75C947.268 263.75 949.102 257.75 950.602 251.75C952.268 245.583 953.102 240.333 953.102 236C953.102 233.167 952.602 230.917 951.602 229.25C950.768 227.417 949.185 226.5 946.852 226.5C943.185 226.5 938.768 228.75 933.602 233.25C928.435 237.583 923.102 243.333 917.602 250.5C912.102 257.667 906.852 265.583 901.852 274.25C897.018 282.75 893.102 291.25 890.102 299.75C887.768 299.75 884.935 299.167 881.602 298C878.268 296.833 876.602 295.667 876.602 294.5C876.602 293.5 877.518 290.583 879.352 285.75C881.018 280.75 883.018 274.833 885.352 268C887.518 261 889.435 253.917 891.102 246.75C892.935 239.583 893.852 233.25 893.852 227.75C894.852 226.583 896.435 225.417 898.602 224.25C900.768 223.083 903.018 222.5 905.352 222.5C909.852 222.5 912.102 224.667 912.102 229C912.102 231.167 911.435 234.917 910.102 240.25C908.935 245.417 907.435 251.167 905.602 257.5C908.935 252.167 912.685 246.75 916.852 241.25C921.185 235.583 925.685 230.417 930.352 225.75C935.018 221.083 939.685 217.333 944.352 214.5C949.185 211.5 953.852 210 958.352 210C963.518 210 967.018 211.917 968.852 215.75C970.852 219.417 971.852 223.833 971.852 229C971.852 233.167 971.352 237.583 970.352 242.25C969.518 246.75 968.518 251 967.352 255C966.185 258.833 965.102 261.917 964.102 264.25C967.602 257.917 971.435 251.833 975.602 246C979.935 240 984.602 235.167 989.602 231.5C994.602 227.667 999.935 225.75 1005.6 225.75C1010.93 225.75 1014.6 227.333 1016.6 230.5C1018.77 233.667 1019.85 237.417 1019.85 241.75C1019.85 246.083 1019.1 250.833 1017.6 256C1016.1 261.167 1014.52 266.167 1012.85 271C1011.35 275.833 1010.6 280 1010.6 283.5C1010.6 285.667 1011.1 287.667 1012.1 289.5C1013.27 291.167 1015.27 292 1018.1 292C1022.77 292 1027.1 289.917 1031.1 285.75C1035.27 281.417 1039.1 276.25 1042.6 270.25C1046.1 264.083 1049.1 258.167 1051.6 252.5L1054.6 256C1051.93 263 1048.52 270 1044.35 277C1040.18 283.833 1035.27 289.5 1029.6 294C1024.1 298.5 1018.02 300.75 1011.35 300.75ZM1094.97 185C1092.31 185 1089.89 184.333 1087.72 183C1085.72 181.667 1084.72 179.583 1084.72 176.75C1084.72 173.25 1086.72 170.25 1090.72 167.75C1094.89 165.083 1098.97 163.75 1102.97 163.75C1105.47 163.75 1107.47 164.333 1108.97 165.5C1110.47 166.667 1111.22 168.667 1111.22 171.5C1111.22 174.667 1109.47 177.75 1105.97 180.75C1102.64 183.583 1098.97 185 1094.97 185ZM1064.97 299.5C1058.47 299.5 1053.64 297.417 1050.47 293.25C1047.31 289.25 1045.72 284.333 1045.72 278.5C1045.72 274.667 1046.39 269.833 1047.72 264C1049.22 258.167 1051.14 252.083 1053.47 245.75C1055.81 239.25 1058.47 233.167 1061.47 227.5C1064.64 221.833 1067.97 217.25 1071.47 213.75C1074.97 210.083 1078.39 208.25 1081.72 208.25C1083.22 208.25 1084.47 208.75 1085.47 209.75C1086.64 210.583 1087.22 211.917 1087.22 213.75C1087.22 215.75 1085.89 219 1083.22 223.5C1080.72 228 1077.72 233.167 1074.22 239C1070.72 244.833 1067.64 251 1064.97 257.5C1062.47 263.833 1061.22 269.917 1061.22 275.75C1061.22 281.75 1062.22 285.75 1064.22 287.75C1066.22 289.75 1069.31 290.75 1073.47 290.75C1079.14 290.75 1085.14 287.917 1091.47 282.25C1097.97 276.583 1104.81 266.667 1111.97 252.5L1114.22 255C1109.39 269.333 1102.39 280.333 1093.22 288C1084.22 295.667 1074.81 299.5 1064.97 299.5ZM1128.03 300.5C1120.86 300.5 1115.69 298 1112.53 293C1109.53 288.167 1108.03 282.083 1108.03 274.75C1108.03 266.75 1109.53 257.25 1112.53 246.25C1115.53 235.25 1119.44 223.667 1124.28 211.5C1129.28 199.333 1134.69 187.5 1140.53 176C1146.36 164.333 1152.19 153.75 1158.03 144.25C1163.86 134.75 1169.19 127.167 1174.03 121.5C1179.03 115.833 1182.94 113 1185.78 113C1187.61 113 1189.11 114.083 1190.28 116.25C1191.44 118.25 1192.36 120.75 1193.03 123.75C1193.69 126.583 1194.03 129.167 1194.03 131.5C1194.03 136 1192.86 141.917 1190.53 149.25C1188.36 156.417 1185.19 164.5 1181.03 173.5C1177.03 182.333 1172.19 191.333 1166.53 200.5C1161.03 209.5 1154.94 218.167 1148.28 226.5C1141.78 234.833 1134.86 242 1127.53 248C1126.53 252.5 1125.69 256.917 1125.03 261.25C1124.53 265.417 1124.28 269.417 1124.28 273.25C1124.28 286.083 1127.94 292.5 1135.28 292.5C1139.78 292.5 1144.19 290.5 1148.53 286.5C1153.03 282.5 1157.19 277.5 1161.03 271.5C1165.03 265.333 1168.44 259 1171.28 252.5L1175.03 254.5C1168.36 268.667 1161.11 279.917 1153.28 288.25C1145.44 296.417 1137.03 300.5 1128.03 300.5ZM1129.78 239.5C1135.61 233.667 1141.28 227 1146.78 219.5C1152.28 211.833 1157.36 203.917 1162.03 195.75C1166.86 187.583 1171.11 179.667 1174.78 172C1178.44 164.333 1181.28 157.5 1183.28 151.5C1185.28 145.333 1186.28 140.583 1186.28 137.25C1186.28 135.583 1186.03 134.5 1185.53 134C1185.19 133.5 1184.86 133.25 1184.53 133.25C1183.19 133.25 1180.86 135.417 1177.53 139.75C1174.36 143.917 1170.61 149.583 1166.28 156.75C1161.94 163.917 1157.53 172.083 1153.03 181.25C1148.53 190.417 1144.19 200 1140.03 210C1136.03 220 1132.61 229.833 1129.78 239.5ZM1193.36 304C1183.19 304 1175.52 301.167 1170.36 295.5C1165.36 290 1162.86 283.167 1162.86 275C1162.86 267.5 1164.69 259.583 1168.36 251.25C1172.19 242.917 1177.19 235.083 1183.36 227.75C1189.69 220.417 1196.61 214.5 1204.11 210C1211.61 205.333 1219.02 203 1226.36 203C1230.19 203 1233.69 204 1236.86 206C1240.19 208 1241.86 212.083 1241.86 218.25C1241.86 224.583 1239.94 230.583 1236.11 236.25C1232.44 241.75 1227.52 246.667 1221.36 251C1215.36 255.333 1208.69 258.917 1201.36 261.75C1194.19 264.417 1187.02 266.083 1179.86 266.75C1179.52 268.417 1179.27 270 1179.11 271.5C1178.94 273 1178.86 274.417 1178.86 275.75C1178.86 280.917 1180.19 285.75 1182.86 290.25C1185.69 294.583 1190.94 296.75 1198.61 296.75C1205.77 296.75 1212.86 294.75 1219.86 290.75C1226.86 286.583 1233.36 281.167 1239.36 274.5C1245.36 267.833 1250.44 260.5 1254.61 252.5L1257.61 254.75C1253.11 264.75 1247.36 273.417 1240.36 280.75C1233.52 288.083 1226.02 293.75 1217.86 297.75C1209.86 301.917 1201.69 304 1193.36 304ZM1181.11 262C1185.61 260.5 1190.69 258.333 1196.36 255.5C1202.02 252.5 1207.44 249 1212.61 245C1217.94 241 1222.27 236.583 1225.61 231.75C1229.11 226.917 1230.86 221.833 1230.86 216.5C1230.86 214.667 1230.52 213.25 1229.86 212.25C1229.19 211.25 1227.77 210.75 1225.61 210.75C1221.61 210.75 1217.36 212.333 1212.86 215.5C1208.36 218.5 1204.02 222.5 1199.86 227.5C1195.69 232.5 1191.94 238 1188.61 244C1185.27 250 1182.77 256 1181.11 262Z" fill="black"/>
<path d="M610.509 371.312L611.466 377.874L612.867 371.961L622.711 337.234H628.248L637.853 371.961L639.22 377.977L640.279 371.277L648.004 337.234H654.601L642.535 387H636.554L626.3 350.735L625.514 346.941L624.728 350.735L614.098 387H608.116L596.085 337.234H602.647L610.509 371.312ZM675.177 387.684C670.164 387.684 666.085 386.043 662.94 382.762C659.796 379.458 658.224 375.049 658.224 369.534V368.372C658.224 364.703 658.919 361.434 660.309 358.562C661.721 355.669 663.681 353.413 666.188 351.795C668.717 350.154 671.451 349.334 674.391 349.334C679.199 349.334 682.936 350.918 685.602 354.085C688.268 357.252 689.601 361.787 689.601 367.688V370.32H664.547C664.638 373.966 665.698 376.917 667.726 379.173C669.776 381.406 672.374 382.522 675.519 382.522C677.752 382.522 679.643 382.067 681.192 381.155C682.742 380.244 684.098 379.036 685.26 377.532L689.122 380.54C686.023 385.302 681.375 387.684 675.177 387.684ZM674.391 354.529C671.839 354.529 669.697 355.464 667.965 357.332C666.233 359.178 665.162 361.775 664.752 365.125H683.277V364.646C683.095 361.434 682.229 358.95 680.68 357.195C679.13 355.418 677.034 354.529 674.391 354.529ZM728.258 368.919C728.258 374.57 726.959 379.116 724.361 382.557C721.764 385.975 718.277 387.684 713.902 387.684C709.231 387.684 705.619 386.032 703.067 382.728L702.76 387H696.949V334.5H703.272V354.085C705.825 350.918 709.345 349.334 713.834 349.334C718.323 349.334 721.843 351.032 724.396 354.427C726.97 357.822 728.258 362.47 728.258 368.372V368.919ZM721.935 368.201C721.935 363.895 721.103 360.568 719.439 358.221C717.776 355.874 715.383 354.7 712.262 354.7C708.092 354.7 705.095 356.637 703.272 360.511V376.507C705.209 380.381 708.229 382.317 712.33 382.317C715.361 382.317 717.719 381.144 719.405 378.797C721.091 376.45 721.935 372.918 721.935 368.201ZM749.415 368.44H732.735V363.279H749.415V368.44ZM754.063 368.201C754.063 362.527 755.408 357.97 758.097 354.529C760.785 351.066 764.306 349.334 768.658 349.334C772.988 349.334 776.417 350.815 778.946 353.777V334.5H785.27V387H779.459L779.151 383.035C776.622 386.134 773.102 387.684 768.59 387.684C764.306 387.684 760.808 385.929 758.097 382.42C755.408 378.911 754.063 374.331 754.063 368.68V368.201ZM760.387 368.919C760.387 373.112 761.253 376.393 762.984 378.763C764.716 381.132 767.109 382.317 770.162 382.317C774.173 382.317 777.101 380.517 778.946 376.917V359.93C777.055 356.443 774.15 354.7 770.23 354.7C767.132 354.7 764.716 355.896 762.984 358.289C761.253 360.682 760.387 364.225 760.387 368.919ZM810.46 387.684C805.447 387.684 801.368 386.043 798.224 382.762C795.079 379.458 793.507 375.049 793.507 369.534V368.372C793.507 364.703 794.202 361.434 795.592 358.562C797.005 355.669 798.964 353.413 801.471 351.795C804 350.154 806.734 349.334 809.674 349.334C814.482 349.334 818.219 350.918 820.885 354.085C823.551 357.252 824.884 361.787 824.884 367.688V370.32H799.83C799.921 373.966 800.981 376.917 803.009 379.173C805.06 381.406 807.657 382.522 810.802 382.522C813.035 382.522 814.926 382.067 816.476 381.155C818.025 380.244 819.381 379.036 820.543 377.532L824.405 380.54C821.306 385.302 816.658 387.684 810.46 387.684ZM809.674 354.529C807.122 354.529 804.98 355.464 803.248 357.332C801.516 359.178 800.445 361.775 800.035 365.125H818.561V364.646C818.378 361.434 817.512 358.95 815.963 357.195C814.413 355.418 812.317 354.529 809.674 354.529ZM843.956 378.421L853.116 350.018H859.576L846.314 387H841.495L828.097 350.018H834.557L843.956 378.421ZM880.528 387.684C875.515 387.684 871.437 386.043 868.292 382.762C865.147 379.458 863.575 375.049 863.575 369.534V368.372C863.575 364.703 864.27 361.434 865.66 358.562C867.073 355.669 869.033 353.413 871.539 351.795C874.068 350.154 876.803 349.334 879.742 349.334C884.55 349.334 888.287 350.918 890.953 354.085C893.619 357.252 894.952 361.787 894.952 367.688V370.32H869.898C869.99 373.966 871.049 376.917 873.077 379.173C875.128 381.406 877.726 382.522 880.87 382.522C883.103 382.522 884.994 382.067 886.544 381.155C888.093 380.244 889.449 379.036 890.611 377.532L894.474 380.54C891.375 385.302 886.726 387.684 880.528 387.684ZM879.742 354.529C877.19 354.529 875.048 355.464 873.316 357.332C871.585 359.178 870.514 361.775 870.104 365.125H888.629V364.646C888.447 361.434 887.581 358.95 886.031 357.195C884.482 355.418 882.385 354.529 879.742 354.529ZM909.171 387H902.848V334.5H909.171V387ZM917.647 368.167C917.647 364.544 918.354 361.285 919.767 358.392C921.202 355.498 923.185 353.265 925.714 351.692C928.266 350.12 931.171 349.334 934.43 349.334C939.465 349.334 943.533 351.077 946.632 354.563C949.754 358.05 951.314 362.687 951.314 368.475V368.919C951.314 372.519 950.619 375.755 949.229 378.626C947.862 381.474 945.891 383.696 943.316 385.291C940.764 386.886 937.825 387.684 934.498 387.684C929.485 387.684 925.418 385.94 922.296 382.454C919.197 378.968 917.647 374.354 917.647 368.611V368.167ZM924.005 368.919C924.005 373.021 924.951 376.313 926.842 378.797C928.756 381.281 931.308 382.522 934.498 382.522C937.711 382.522 940.263 381.269 942.154 378.763C944.046 376.233 944.991 372.701 944.991 368.167C944.991 364.111 944.023 360.83 942.086 358.323C940.172 355.794 937.62 354.529 934.43 354.529C931.308 354.529 928.79 355.771 926.876 358.255C924.962 360.739 924.005 364.293 924.005 368.919ZM990.484 368.919C990.484 374.547 989.197 379.082 986.622 382.522C984.047 385.963 980.561 387.684 976.163 387.684C971.674 387.684 968.142 386.259 965.567 383.411V401.219H959.244V350.018H965.021L965.328 354.119C967.903 350.929 971.48 349.334 976.061 349.334C980.504 349.334 984.013 351.009 986.588 354.358C989.186 357.708 990.484 362.368 990.484 368.338V368.919ZM984.161 368.201C984.161 364.031 983.272 360.739 981.495 358.323C979.718 355.908 977.28 354.7 974.181 354.7C970.353 354.7 967.481 356.398 965.567 359.793V377.464C967.459 380.836 970.353 382.522 974.249 382.522C977.28 382.522 979.684 381.326 981.461 378.934C983.261 376.518 984.161 372.941 984.161 368.201ZM1013.9 387.684C1008.88 387.684 1004.81 386.043 1001.66 382.762C998.517 379.458 996.944 375.049 996.944 369.534V368.372C996.944 364.703 997.639 361.434 999.029 358.562C1000.44 355.669 1002.4 353.413 1004.91 351.795C1007.44 350.154 1010.17 349.334 1013.11 349.334C1017.92 349.334 1021.66 350.918 1024.32 354.085C1026.99 357.252 1028.32 361.787 1028.32 367.688V370.32H1003.27C1003.36 373.966 1004.42 376.917 1006.45 379.173C1008.5 381.406 1011.09 382.522 1014.24 382.522C1016.47 382.522 1018.36 382.067 1019.91 381.155C1021.46 380.244 1022.82 379.036 1023.98 377.532L1027.84 380.54C1024.74 385.302 1020.1 387.684 1013.9 387.684ZM1013.11 354.529C1010.56 354.529 1008.42 355.464 1006.69 357.332C1004.95 359.178 1003.88 361.775 1003.47 365.125H1022V364.646C1021.82 361.434 1020.95 358.95 1019.4 357.195C1017.85 355.418 1015.75 354.529 1013.11 354.529ZM1053.55 355.691C1052.59 355.532 1051.55 355.452 1050.44 355.452C1046.29 355.452 1043.47 357.218 1041.99 360.75V387H1035.67V350.018H1041.82L1041.92 354.29C1044 350.986 1046.94 349.334 1050.74 349.334C1051.97 349.334 1052.91 349.493 1053.55 349.812V355.691Z" fill="black"/>
<defs>
<clipPath id="clip0">
<rect width="436.901" height="476.911" fill="white"/>
</clipPath>
</defs>
</svg>
